<mxfile host="app.diagrams.net" modified="2024-02-29T19:57:26.668Z" agent="Mozilla/5.0 (Windows NT 10.0; Win64; x64) AppleWebKit/537.36 (KHTML, like Gecko) Chrome/121.0.0.0 Safari/537.36 OPR/107.0.0.0" etag="XfQ1PkLNXJNa_b1AEDsl" version="24.0.0" type="device">
  <diagram id="C5RBs43oDa-KdzZeNtuy" name="Page-1">
    <mxGraphModel dx="1741" dy="948" grid="1" gridSize="10" guides="1" tooltips="1" connect="1" arrows="1" fold="1" page="1" pageScale="1" pageWidth="400" pageHeight="370" background="#FF3333" math="0" shadow="0">
      <root>
        <mxCell id="WIyWlLk6GJQsqaUBKTNV-0" />
        <mxCell id="WIyWlLk6GJQsqaUBKTNV-1" parent="WIyWlLk6GJQsqaUBKTNV-0" />
        <mxCell id="20S1RBUbA5caUG9tnBE8-1" value="Model View" style="swimlane;whiteSpace=wrap;html=1;startSize=30;rounded=1;swimlaneFillColor=#99FFFF;fillColor=#99FFFF;" vertex="1" parent="WIyWlLk6GJQsqaUBKTNV-1">
          <mxGeometry x="1140" y="100" width="1430" height="1660" as="geometry">
            <mxRectangle x="1060" y="190" width="200" height="40" as="alternateBounds" />
          </mxGeometry>
        </mxCell>
        <mxCell id="20S1RBUbA5caUG9tnBE8-2" value="&lt;p style=&quot;margin:0px;margin-top:4px;text-align:center;&quot;&gt;&lt;i&gt;&amp;lt;&amp;lt;Model&amp;gt;&amp;gt;&lt;/i&gt;&lt;br&gt;&lt;/p&gt;&lt;p style=&quot;margin:0px;margin-top:4px;text-align:center;&quot;&gt;&lt;b&gt;&lt;i&gt;User&lt;/i&gt;&lt;/b&gt;&lt;/p&gt;&lt;p style=&quot;margin:0px;margin-left:4px;&quot;&gt; - id: int&amp;nbsp; &amp;nbsp; &amp;nbsp; &amp;nbsp; &amp;nbsp; &amp;nbsp; &amp;nbsp; &amp;nbsp; &amp;nbsp; &amp;nbsp; &amp;nbsp; &amp;nbsp;&lt;/p&gt;&lt;p style=&quot;margin:0px;margin-left:4px;&quot;&gt; - user_name: String&amp;nbsp; &amp;nbsp; &amp;nbsp; &amp;nbsp; &amp;nbsp; &amp;nbsp; &amp;nbsp;&lt;/p&gt;&lt;p style=&quot;margin:0px;margin-left:4px;&quot;&gt; - user_first_name: String&amp;nbsp; &amp;nbsp; &amp;nbsp; &amp;nbsp;&lt;/p&gt;&lt;p style=&quot;margin:0px;margin-left:4px;&quot;&gt; - user_last_name: String&amp;nbsp; &amp;nbsp; &amp;nbsp; &amp;nbsp; &lt;/p&gt;&lt;p style=&quot;margin:0px;margin-left:4px;&quot;&gt; - user_password: String&amp;nbsp; &amp;nbsp; &amp;nbsp; &amp;nbsp; &amp;nbsp;&lt;/p&gt;&lt;p style=&quot;margin:0px;margin-left:4px;&quot;&gt; - user_role: String&amp;nbsp; &amp;nbsp; &amp;nbsp; &amp;nbsp; &amp;nbsp; &amp;nbsp; &amp;nbsp;&lt;/p&gt;&lt;hr size=&quot;1&quot;&gt;&lt;p style=&quot;margin:0px;margin-left:4px;&quot;&gt; + User(uName: String, uFName:&amp;nbsp; &amp;nbsp;&lt;/p&gt;&lt;p style=&quot;margin:0px;margin-left:4px;&quot;&gt;&amp;nbsp; &amp;nbsp; &amp;nbsp;String, uLName: String,&amp;nbsp; &amp;nbsp; &amp;nbsp;&lt;/p&gt;&lt;p style=&quot;margin:0px;margin-left:4px;&quot;&gt;&amp;nbsp; &amp;nbsp; &amp;nbsp;uPassword: String, uRole:&amp;nbsp; &amp;nbsp;&lt;/p&gt;&lt;p style=&quot;margin:0px;margin-left:4px;&quot;&gt;&amp;nbsp; &amp;nbsp; &amp;nbsp;String, key: PasswordEncoder): &lt;/p&gt;&lt;p style=&quot;margin:0px;margin-left:4px;&quot;&gt;&amp;nbsp; &amp;nbsp; &amp;nbsp;void&amp;nbsp; &amp;nbsp; &amp;nbsp; &amp;nbsp; &amp;nbsp; &amp;nbsp; &amp;nbsp; &amp;nbsp; &amp;nbsp; &amp;nbsp; &amp;nbsp; &amp;nbsp; &lt;/p&gt;&lt;p style=&quot;margin:0px;margin-left:4px;&quot;&gt; + encryptPassword(key:&amp;nbsp; &amp;nbsp; &amp;nbsp; &amp;nbsp; &amp;nbsp;&lt;/p&gt;&lt;p style=&quot;margin:0px;margin-left:4px;&quot;&gt;&amp;nbsp; &amp;nbsp; &amp;nbsp;PasswordEncoder): void&amp;nbsp; &amp;nbsp; +&lt;span style=&quot;background-color: initial;&quot;&gt;NoArgsConstructor()&lt;/span&gt;&lt;/p&gt;&lt;p style=&quot;margin: 0px 0px 0px 4px;&quot;&gt;+AllArgsConstructor()&lt;/p&gt;&lt;p style=&quot;margin: 0px 0px 0px 4px;&quot;&gt;+Getter()&lt;/p&gt;&lt;p style=&quot;margin: 0px 0px 0px 4px;&quot;&gt;&lt;span style=&quot;background-color: initial;&quot;&gt;+Setter()&lt;/span&gt;&lt;/p&gt;&lt;p style=&quot;margin: 0px 0px 0px 4px;&quot;&gt;&lt;br&gt;&lt;/p&gt;" style="verticalAlign=top;align=left;overflow=fill;html=1;whiteSpace=wrap;" vertex="1" parent="20S1RBUbA5caUG9tnBE8-1">
          <mxGeometry x="770" y="690" width="260" height="310" as="geometry" />
        </mxCell>
        <mxCell id="20S1RBUbA5caUG9tnBE8-3" value="&lt;p style=&quot;margin:0px;margin-top:4px;text-align:center;&quot;&gt;&lt;i&gt;&amp;lt;&amp;lt;Implementation&amp;gt;&amp;gt;&lt;/i&gt;&lt;br&gt;&lt;/p&gt;&lt;p style=&quot;margin:0px;margin-top:4px;text-align:center;&quot;&gt;&lt;i&gt;&lt;b&gt;UserServiceImpl&lt;/b&gt;&lt;/i&gt;&lt;/p&gt;&lt;p style=&quot;margin:0px;margin-left:4px;&quot;&gt;- repo: UserRepo&amp;nbsp; &amp;nbsp; &amp;nbsp; &amp;nbsp; &amp;nbsp; &amp;nbsp; &amp;nbsp; &amp;nbsp; &amp;nbsp; &amp;nbsp; &amp;nbsp; &amp;nbsp; &amp;nbsp;&lt;/p&gt;&lt;p style=&quot;margin:0px;margin-left:4px;&quot;&gt; - logRepo: LogRepo&amp;nbsp; &amp;nbsp; &amp;nbsp; &amp;nbsp; &amp;nbsp; &amp;nbsp; &amp;nbsp; &amp;nbsp; &amp;nbsp; &amp;nbsp; &amp;nbsp; &amp;nbsp;&lt;/p&gt;&lt;p style=&quot;margin:0px;margin-left:4px;&quot;&gt; - key: PasswordEncoder&amp;nbsp; &amp;nbsp;&lt;/p&gt;&lt;hr size=&quot;1&quot;&gt;&lt;p style=&quot;margin:0px;margin-left:4px;&quot;&gt;&lt;/p&gt;&lt;div&gt;&lt;div&gt;&amp;nbsp;+ createBaseUsers(): void&amp;nbsp; &amp;nbsp; &amp;nbsp; &amp;nbsp; &amp;nbsp; &amp;nbsp; &amp;nbsp; &amp;nbsp; &lt;/div&gt;&lt;div&gt; + registerUser(user: User): void&amp;nbsp; &amp;nbsp; &amp;nbsp; &amp;nbsp; &amp;nbsp;&lt;/div&gt;&lt;div&gt; + logIn(user: User): boolean&amp;nbsp; &amp;nbsp; &amp;nbsp; &amp;nbsp; &amp;nbsp; &amp;nbsp; &amp;nbsp;&lt;/div&gt;&lt;div&gt; + getUserRole(username: String): String &lt;/div&gt;&lt;div&gt; + editUser(user: User): void&amp;nbsp; &amp;nbsp; &amp;nbsp; &amp;nbsp; &amp;nbsp; &amp;nbsp; &amp;nbsp;&lt;/div&gt;&lt;div&gt; + deleteUser(userId: int): void&amp;nbsp; &amp;nbsp; &amp;nbsp; &amp;nbsp; &amp;nbsp; &lt;/div&gt;&lt;div&gt; + resetPassword(userId: int,&amp;nbsp; &amp;nbsp; &amp;nbsp; &amp;nbsp; &amp;nbsp; &amp;nbsp; &amp;nbsp;&lt;/div&gt;&lt;div&gt;&amp;nbsp; &amp;nbsp; &amp;nbsp;newPassword: String): void&amp;nbsp; &amp;nbsp; &amp;nbsp; &amp;nbsp; &amp;nbsp; &lt;/div&gt;&lt;div&gt; + refreshUser(): List&amp;lt;User&amp;gt;&amp;nbsp; &amp;nbsp; &amp;nbsp; &amp;nbsp; &amp;nbsp; &amp;nbsp; &amp;nbsp; &lt;/div&gt;&lt;div&gt; + searchByUsername(searchString: String) &lt;/div&gt;&lt;div&gt;&amp;nbsp; &amp;nbsp; &amp;nbsp;: List&amp;lt;String&amp;gt;&amp;nbsp; &amp;nbsp; &amp;nbsp; &amp;nbsp; &amp;nbsp; &amp;nbsp; &amp;nbsp; &amp;nbsp; &amp;nbsp; &amp;nbsp; &amp;nbsp; &amp;nbsp;&lt;/div&gt;&lt;div&gt; + searchByFirstName(searchString:&amp;nbsp; &amp;nbsp; &amp;nbsp; &amp;nbsp;&lt;/div&gt;&lt;div&gt;&amp;nbsp; &amp;nbsp; &amp;nbsp;String): List&amp;lt;String&amp;gt;&amp;nbsp; &amp;nbsp; &amp;nbsp; &amp;nbsp; &amp;nbsp; &amp;nbsp; &amp;nbsp; &amp;nbsp; &lt;/div&gt;&lt;div&gt; + searchByLastName(searchString:&amp;nbsp; &amp;nbsp; &amp;nbsp; &amp;nbsp; &lt;/div&gt;&lt;div&gt;&amp;nbsp; &amp;nbsp; &amp;nbsp;String): List&amp;lt;String&amp;gt;&amp;nbsp; &amp;nbsp; &amp;nbsp; &amp;nbsp; &amp;nbsp; &amp;nbsp; &amp;nbsp; &amp;nbsp; &lt;/div&gt;&lt;div&gt; - isSimilar(searchString: String,&amp;nbsp; &amp;nbsp; &amp;nbsp; &amp;nbsp; &lt;/div&gt;&lt;div&gt;&amp;nbsp; &amp;nbsp; &amp;nbsp;compareString: String): boolean&amp;nbsp; &amp;nbsp;&lt;/div&gt;&lt;/div&gt;" style="verticalAlign=top;align=left;overflow=fill;html=1;whiteSpace=wrap;" vertex="1" parent="20S1RBUbA5caUG9tnBE8-1">
          <mxGeometry x="630" y="30" width="310" height="360" as="geometry" />
        </mxCell>
        <mxCell id="20S1RBUbA5caUG9tnBE8-4" value="&lt;p style=&quot;margin:0px;margin-top:4px;text-align:center;&quot;&gt;&lt;i&gt;&amp;lt;&amp;lt;Interface&amp;gt;&amp;gt;&lt;/i&gt;&lt;/p&gt;&lt;p style=&quot;margin:0px;margin-top:4px;text-align:center;&quot;&gt;&lt;i&gt;UserService&lt;/i&gt;&lt;/p&gt;&lt;hr size=&quot;1&quot;&gt;&lt;p style=&quot;margin:0px;margin-left:4px;&quot;&gt;&amp;nbsp;&lt;span style=&quot;background-color: initial;&quot;&gt;+ createBaseUsers(): void&amp;nbsp; &amp;nbsp;&lt;/span&gt;&lt;/p&gt;&lt;p style=&quot;margin:0px;margin-left:4px;&quot;&gt; + registerUser(user: User): void &lt;/p&gt;&lt;p style=&quot;margin:0px;margin-left:4px;&quot;&gt; + logIn(user: User): boolean &lt;/p&gt;&lt;p style=&quot;margin:0px;margin-left:4px;&quot;&gt; + getUserRole(username: String): String &lt;/p&gt;&lt;p style=&quot;margin:0px;margin-left:4px;&quot;&gt; + editUser(user: User): void &lt;/p&gt;&lt;p style=&quot;margin:0px;margin-left:4px;&quot;&gt; + deleteUser(userId: int): void &lt;/p&gt;&lt;p style=&quot;margin:0px;margin-left:4px;&quot;&gt; + refreshUser(): List&amp;lt;User&amp;gt; &lt;/p&gt;&lt;p style=&quot;margin:0px;margin-left:4px;&quot;&gt; + searchByUsername(searchString: String): List&amp;lt;String&amp;gt; &lt;/p&gt;&lt;p style=&quot;margin:0px;margin-left:4px;&quot;&gt; + searchByFirstName(searchString: String): List&amp;lt;String&amp;gt; &lt;/p&gt;&lt;p style=&quot;margin:0px;margin-left:4px;&quot;&gt; + searchByLastName(searchString: String): List&amp;lt;String&amp;gt; &lt;/p&gt;&lt;p style=&quot;margin:0px;margin-left:4px;&quot;&gt; + resetPassword(userId: int, newPassword: String): void &lt;/p&gt;" style="verticalAlign=top;align=left;overflow=fill;html=1;whiteSpace=wrap;" vertex="1" parent="20S1RBUbA5caUG9tnBE8-1">
          <mxGeometry x="1100" y="190" width="270" height="300" as="geometry" />
        </mxCell>
        <mxCell id="20S1RBUbA5caUG9tnBE8-5" value="" style="endArrow=block;dashed=1;endFill=0;endSize=12;html=1;rounded=0;entryX=0;entryY=0;entryDx=0;entryDy=0;exitX=1;exitY=0.5;exitDx=0;exitDy=0;" edge="1" parent="20S1RBUbA5caUG9tnBE8-1" source="20S1RBUbA5caUG9tnBE8-3" target="20S1RBUbA5caUG9tnBE8-4">
          <mxGeometry width="160" relative="1" as="geometry">
            <mxPoint x="810" y="240" as="sourcePoint" />
            <mxPoint x="970" y="240" as="targetPoint" />
          </mxGeometry>
        </mxCell>
        <mxCell id="20S1RBUbA5caUG9tnBE8-6" value="Implements" style="edgeLabel;html=1;align=center;verticalAlign=middle;resizable=0;points=[];" vertex="1" connectable="0" parent="20S1RBUbA5caUG9tnBE8-5">
          <mxGeometry x="-0.1983" y="3" relative="1" as="geometry">
            <mxPoint as="offset" />
          </mxGeometry>
        </mxCell>
        <mxCell id="20S1RBUbA5caUG9tnBE8-9" value="Use" style="endArrow=open;endSize=12;dashed=1;html=1;rounded=0;exitX=0;exitY=0.5;exitDx=0;exitDy=0;entryX=1;entryY=0.25;entryDx=0;entryDy=0;" edge="1" parent="20S1RBUbA5caUG9tnBE8-1" source="20S1RBUbA5caUG9tnBE8-4" target="20S1RBUbA5caUG9tnBE8-2">
          <mxGeometry width="160" relative="1" as="geometry">
            <mxPoint x="850" y="642.5" as="sourcePoint" />
            <mxPoint x="940" y="550" as="targetPoint" />
          </mxGeometry>
        </mxCell>
        <mxCell id="20S1RBUbA5caUG9tnBE8-16" value="&lt;p style=&quot;margin:0px;margin-top:4px;text-align:center;&quot;&gt;&lt;i&gt;&amp;lt;&amp;lt;Interface&amp;gt;&amp;gt;&lt;/i&gt;&lt;/p&gt;&lt;p style=&quot;margin:0px;margin-top:4px;text-align:center;&quot;&gt;&lt;i&gt;UserRepo&lt;/i&gt;&lt;/p&gt;&lt;hr size=&quot;1&quot;&gt;&lt;p style=&quot;margin:0px;margin-left:4px;&quot;&gt; + findAll(): List&amp;lt;User&amp;gt;&amp;nbsp; &amp;nbsp; &amp;nbsp; &amp;nbsp; &amp;nbsp;&lt;/p&gt;&lt;p style=&quot;margin:0px;margin-left:4px;&quot;&gt; + findByUserName(userName:&amp;nbsp; &amp;nbsp; &amp;nbsp;&lt;/p&gt;&lt;p style=&quot;margin:0px;margin-left:4px;&quot;&gt;&amp;nbsp; &amp;nbsp; &amp;nbsp;String): User&amp;nbsp; &amp;nbsp; &amp;nbsp; &amp;nbsp; &amp;nbsp; &amp;nbsp; &amp;nbsp; &amp;nbsp;&lt;/p&gt;&lt;p style=&quot;margin:0px;margin-left:4px;&quot;&gt; + findById(id: int): User&amp;nbsp; &amp;nbsp; &amp;nbsp; &amp;nbsp;&lt;/p&gt;&lt;p style=&quot;margin:0px;margin-left:4px;&quot;&gt; + deleteUserById(userId: int):&amp;nbsp; &lt;/p&gt;&lt;p style=&quot;margin:0px;margin-left:4px;&quot;&gt;&amp;nbsp; &amp;nbsp; &amp;nbsp;void&amp;nbsp; &amp;nbsp; &amp;nbsp; &amp;nbsp; &amp;nbsp; &amp;nbsp; &amp;nbsp; &amp;nbsp; &amp;nbsp; &amp;nbsp; &amp;nbsp; &amp;nbsp; &lt;/p&gt;&lt;p style=&quot;margin:0px;margin-left:4px;&quot;&gt; + eraseUserIdFromAssetUser(&amp;nbsp; &amp;nbsp; &amp;nbsp;&lt;/p&gt;&lt;p style=&quot;margin:0px;margin-left:4px;&quot;&gt;&amp;nbsp; &amp;nbsp; &amp;nbsp;userId: int): void&amp;nbsp; &amp;nbsp; &amp;nbsp; &amp;nbsp; &amp;nbsp; &lt;/p&gt;&lt;p style=&quot;margin:0px;margin-left:4px;&quot;&gt; + updateUserFieldsById(userId:&amp;nbsp; &lt;/p&gt;&lt;p style=&quot;margin:0px;margin-left:4px;&quot;&gt;&amp;nbsp; &amp;nbsp; &amp;nbsp;int, newUserName: String,&amp;nbsp; &amp;nbsp;&lt;/p&gt;&lt;p style=&quot;margin:0px;margin-left:4px;&quot;&gt;&amp;nbsp; &amp;nbsp; &amp;nbsp;newFirstName: String,&amp;nbsp; &amp;nbsp; &amp;nbsp; &amp;nbsp;&lt;/p&gt;&lt;p style=&quot;margin:0px;margin-left:4px;&quot;&gt;&amp;nbsp; &amp;nbsp; &amp;nbsp;newLastName: String,&amp;nbsp; &amp;nbsp; &amp;nbsp; &amp;nbsp; &lt;/p&gt;&lt;p style=&quot;margin:0px;margin-left:4px;&quot;&gt;&amp;nbsp; &amp;nbsp; &amp;nbsp;newUserRole: String): void&amp;nbsp; &lt;/p&gt;&lt;p style=&quot;margin:0px;margin-left:4px;&quot;&gt; + resetPassword(userId: int,&amp;nbsp; &amp;nbsp; &lt;/p&gt;&lt;p style=&quot;margin:0px;margin-left:4px;&quot;&gt;&amp;nbsp; &amp;nbsp; &amp;nbsp;newPassword: String): void&amp;nbsp; &lt;/p&gt;&lt;p style=&quot;margin:0px;margin-left:4px;&quot;&gt; + findAllUserNames():&amp;nbsp; &amp;nbsp; &amp;nbsp; &amp;nbsp; &amp;nbsp; &amp;nbsp;&lt;/p&gt;&lt;p style=&quot;margin:0px;margin-left:4px;&quot;&gt;&amp;nbsp; &amp;nbsp; &amp;nbsp;List&amp;lt;String&amp;gt;&amp;nbsp; &amp;nbsp; &amp;nbsp; &amp;nbsp; &amp;nbsp; &amp;nbsp; &amp;nbsp; &amp;nbsp; &lt;/p&gt;&lt;p style=&quot;margin:0px;margin-left:4px;&quot;&gt; + findAllFNames(): List&amp;lt;String&amp;gt; &lt;/p&gt;&lt;p style=&quot;margin:0px;margin-left:4px;&quot;&gt; + findAllLNames(): List&amp;lt;String&amp;gt; &lt;/p&gt;" style="verticalAlign=top;align=left;overflow=fill;html=1;whiteSpace=wrap;" vertex="1" parent="20S1RBUbA5caUG9tnBE8-1">
          <mxGeometry x="70" y="720" width="280" height="340" as="geometry" />
        </mxCell>
        <mxCell id="20S1RBUbA5caUG9tnBE8-17" value="Use" style="endArrow=open;endSize=12;dashed=1;html=1;rounded=0;exitX=0.25;exitY=1;exitDx=0;exitDy=0;entryX=1;entryY=0.25;entryDx=0;entryDy=0;" edge="1" parent="20S1RBUbA5caUG9tnBE8-1" source="20S1RBUbA5caUG9tnBE8-3" target="20S1RBUbA5caUG9tnBE8-16">
          <mxGeometry width="160" relative="1" as="geometry">
            <mxPoint x="598" y="60" as="sourcePoint" />
            <mxPoint x="310" y="490" as="targetPoint" />
          </mxGeometry>
        </mxCell>
        <mxCell id="20S1RBUbA5caUG9tnBE8-18" value="&lt;p style=&quot;margin:0px;margin-top:4px;text-align:center;&quot;&gt;&lt;i&gt;&amp;lt;&amp;lt;Interface&amp;gt;&amp;gt;&lt;/i&gt;&lt;/p&gt;&lt;p style=&quot;margin:0px;margin-top:4px;text-align:center;&quot;&gt;&lt;i&gt;LogRepo&lt;/i&gt;&lt;/p&gt;&lt;hr size=&quot;1&quot;&gt;&lt;p style=&quot;margin:0px;margin-left:4px;&quot;&gt; + eraseUserIdFromLogs(userId:&amp;nbsp; &lt;/p&gt;&lt;p style=&quot;margin:0px;margin-left:4px;&quot;&gt;&amp;nbsp; &amp;nbsp; &amp;nbsp;int): void&amp;nbsp; &amp;nbsp; &amp;nbsp; &amp;nbsp; &amp;nbsp; &amp;nbsp; &amp;nbsp; &amp;nbsp; &amp;nbsp; &lt;/p&gt;&lt;p style=&quot;margin:0px;margin-left:4px;&quot;&gt; + eraseAssetIdFromLogs(assetId:&lt;/p&gt;&lt;p style=&quot;margin:0px;margin-left:4px;&quot;&gt;&amp;nbsp; &amp;nbsp; &amp;nbsp;int): void&amp;nbsp; &amp;nbsp; &amp;nbsp; &amp;nbsp; &amp;nbsp; &amp;nbsp; &amp;nbsp; &amp;nbsp; &amp;nbsp; &lt;/p&gt;&lt;p style=&quot;margin:0px;margin-left:4px;&quot;&gt; + findAllOrderedByUpdateTimestampDesc(): &lt;/p&gt;&lt;p style=&quot;margin:0px;margin-left:4px;&quot;&gt;&amp;nbsp; &amp;nbsp; &amp;nbsp;List&amp;lt;Log&amp;gt;&amp;nbsp; &amp;nbsp; &amp;nbsp; &amp;nbsp; &amp;nbsp; &amp;nbsp; &amp;nbsp; &amp;nbsp; &amp;nbsp; &amp;nbsp;&lt;/p&gt;" style="verticalAlign=top;align=left;overflow=fill;html=1;whiteSpace=wrap;" vertex="1" parent="20S1RBUbA5caUG9tnBE8-1">
          <mxGeometry x="80" y="480" width="280" height="160" as="geometry" />
        </mxCell>
        <mxCell id="20S1RBUbA5caUG9tnBE8-19" value="Use" style="endArrow=open;endSize=12;dashed=1;html=1;rounded=0;exitX=0;exitY=1;exitDx=0;exitDy=0;entryX=1;entryY=0;entryDx=0;entryDy=0;" edge="1" parent="20S1RBUbA5caUG9tnBE8-1" source="20S1RBUbA5caUG9tnBE8-3" target="20S1RBUbA5caUG9tnBE8-18">
          <mxGeometry width="160" relative="1" as="geometry">
            <mxPoint x="615" y="60" as="sourcePoint" />
            <mxPoint x="285" y="555" as="targetPoint" />
          </mxGeometry>
        </mxCell>
        <mxCell id="20S1RBUbA5caUG9tnBE8-20" value="Controller" style="swimlane;whiteSpace=wrap;html=1;startSize=30;rounded=1;swimlaneFillColor=#99FFFF;fillColor=#99FFFF;" vertex="1" parent="WIyWlLk6GJQsqaUBKTNV-1">
          <mxGeometry x="100" y="840" width="680" height="460" as="geometry">
            <mxRectangle x="360" y="170" width="200" height="40" as="alternateBounds" />
          </mxGeometry>
        </mxCell>
        <mxCell id="20S1RBUbA5caUG9tnBE8-21" value="&lt;p style=&quot;margin:0px;margin-top:4px;text-align:center;&quot;&gt;&lt;i&gt;&amp;lt;&amp;lt;Controller&amp;gt;&lt;/i&gt;&lt;/p&gt;&lt;p style=&quot;margin:0px;margin-top:4px;text-align:center;&quot;&gt;&lt;i&gt;AssetController&lt;/i&gt;&lt;/p&gt;&lt;p style=&quot;margin:0px;margin-top:4px;text-align:center;&quot;&gt;&lt;i&gt;&lt;br&gt;&lt;/i&gt;&lt;/p&gt;&lt;p style=&quot;margin: 4px 0px 0px;&quot;&gt;&lt;span style=&quot;background-color: initial;&quot;&gt;- userService: UserService&amp;nbsp;&lt;/span&gt;&lt;/p&gt;&lt;p style=&quot;margin: 4px 0px 0px;&quot;&gt;&lt;br&gt;&lt;/p&gt;&lt;p style=&quot;margin: 4px 0px 0px;&quot;&gt;| + registerUser(user: User): void |&lt;/p&gt;&lt;p style=&quot;margin: 4px 0px 0px;&quot;&gt;| + login(user: User): ResponseEntity&amp;lt;LoginResponse&amp;gt; |&lt;/p&gt;&lt;p style=&quot;margin: 4px 0px 0px;&quot;&gt;| + getUserRole(username: String): ResponseEntity&amp;lt;String&amp;gt; |&lt;/p&gt;&lt;p style=&quot;margin: 4px 0px 0px;&quot;&gt;| + editUser(user: User): ResponseEntity&amp;lt;String&amp;gt; |&lt;/p&gt;&lt;p style=&quot;margin: 4px 0px 0px;&quot;&gt;| + deleteUser(user_id: int): ResponseEntity&amp;lt;String&amp;gt; |&lt;/p&gt;&lt;p style=&quot;margin: 4px 0px 0px;&quot;&gt;| + resetPassword(passReset: ResetPasswordRequest): ResponseEntity&amp;lt;String&amp;gt; |&lt;/p&gt;&lt;p style=&quot;margin: 4px 0px 0px;&quot;&gt;| + refreshUser(): ResponseEntity&amp;lt;List&amp;lt;User&amp;gt;&amp;gt; |&lt;/p&gt;&lt;p style=&quot;margin: 4px 0px 0px;&quot;&gt;| + searchByUsername(searchString: String): ResponseEntity&amp;lt;List&amp;lt;String&amp;gt;&amp;gt; |&lt;/p&gt;&lt;p style=&quot;margin: 4px 0px 0px;&quot;&gt;| + searchByFirstName(searchString: String): ResponseEntity&amp;lt;List&amp;lt;String&amp;gt;&amp;gt; |&lt;/p&gt;&lt;p style=&quot;margin: 4px 0px 0px;&quot;&gt;| + searchByLastName(searchString: String): ResponseEntity&amp;lt;List&amp;lt;String&amp;gt;&amp;gt; |&lt;/p&gt;" style="verticalAlign=top;align=left;overflow=fill;html=1;whiteSpace=wrap;" vertex="1" parent="20S1RBUbA5caUG9tnBE8-20">
          <mxGeometry x="110" y="80" width="470" height="300" as="geometry" />
        </mxCell>
        <mxCell id="20S1RBUbA5caUG9tnBE8-23" value="" style="line;strokeWidth=1;fillColor=none;align=left;verticalAlign=middle;spacingTop=-1;spacingLeft=3;spacingRight=3;rotatable=1;labelPosition=right;points=[];portConstraint=eastwest;strokeColor=inherit;movable=1;resizable=1;deletable=1;editable=1;locked=0;connectable=1;" vertex="1" parent="20S1RBUbA5caUG9tnBE8-20">
          <mxGeometry x="110" y="160" width="470" height="8" as="geometry" />
        </mxCell>
        <mxCell id="20S1RBUbA5caUG9tnBE8-22" style="edgeStyle=orthogonalEdgeStyle;rounded=0;orthogonalLoop=1;jettySize=auto;html=1;dashed=1;curved=1;strokeWidth=2;exitX=1;exitY=0.25;exitDx=0;exitDy=0;entryX=0;entryY=0.5;entryDx=0;entryDy=0;" edge="1" parent="WIyWlLk6GJQsqaUBKTNV-1" source="20S1RBUbA5caUG9tnBE8-20" target="20S1RBUbA5caUG9tnBE8-3">
          <mxGeometry relative="1" as="geometry">
            <Array as="points">
              <mxPoint x="760" y="780" />
              <mxPoint x="1010" y="780" />
              <mxPoint x="1010" y="400" />
              <mxPoint x="1120" y="400" />
              <mxPoint x="1120" y="410" />
              <mxPoint x="1440" y="410" />
              <mxPoint x="1440" y="310" />
            </Array>
            <mxPoint x="-60" y="810" as="sourcePoint" />
            <mxPoint x="1440" y="450" as="targetPoint" />
          </mxGeometry>
        </mxCell>
      </root>
    </mxGraphModel>
  </diagram>
</mxfile>
